<svg xmlns="http://www.w3.org/2000/svg" viewBox="0 0 1200 600">
  <defs>
    <linearGradient id="sea" x1="0" x2="1" y1="0" y2="1"><stop stop-color="#06142a"/><stop offset="1" stop-color="#0b2442"/></linearGradient>
    <filter id="glow"><feGaussianBlur stdDeviation="4" result="b"/><feMerge><feMergeNode in="b"/><feMergeNode in="SourceGraphic"/></feMerge></filter>
  </defs>
  <rect width="1200" height="600" fill="url(#sea)"/>
  <g stroke="#1e4568" stroke-width="1" opacity=".75">
    <path d="M0 100h1200M0 200h1200M0 300h1200M0 400h1200M0 500h1200M100 0v600M200 0v600M300 0v600M400 0v600M500 0v600M600 0v600M700 0v600M800 0v600M900 0v600M1000 0v600M1100 0v600"/>
  </g>
  <g fill="#163a5c" stroke="#62d9ff" stroke-width="3" filter="url(#glow)" opacity=".88">
    <path d="M144 168c45-49 119-68 177-47 31 11 62 35 94 34 39-2 90-5 116 27 20 25-8 54-37 66-58 23-111 6-159 34-49 28-50 96-111 105-69 10-92-70-133-103-28-22-21-81 53-116z"/>
    <path d="M319 381c50-36 105-46 136-20 28 23 2 68-29 100-33 34-39 84-82 93-47 9-72-43-91-78-22-41 15-58 66-95z"/>
    <path d="M545 174c60-35 126-43 190-23 54 17 102 48 167 55 82 10 123 69 73 121-41 43-102 11-161 27-72 20-87 95-151 101-54 5-86-59-96-108-8-37-70-33-64-89 4-37 24-73 42-84z"/>
    <path d="M643 411c53-19 122 5 126 53 4 48-48 79-96 71-58-10-89-102-30-124z"/>
    <path d="M857 271c55-49 151-46 213-8 41 25 54 76 11 101-48 28-93-14-139 13-50 29-114 16-131-29-11-31 12-47 46-77z"/>
    <path d="M918 430c49-24 110-8 142 22 35 32-13 76-71 74-75-3-132-67-71-96z"/>
  </g>
  <text x="600" y="560" text-anchor="middle" font-family="Arial" font-weight="700" font-size="20" fill="#b7dfff">Fallback offline — conecte à internet para carregar OpenStreetMap real</text>
</svg>
