<svg xmlns="http://www.w3.org/2000/svg" viewBox="0 0 1200 620" role="img" aria-labelledby="title desc">
  <title id="title">Mapa mundial vetorial autoral gratuito</title>
  <desc id="desc">Mapa mundial estilizado para jogo de estratégia, sem dependência de imagens pagas.</desc>
  <defs>
    <linearGradient id="ocean" x1="0" y1="0" x2="1" y2="1">
      <stop offset="0" stop-color="#091a2f"/>
      <stop offset="0.52" stop-color="#0c2744"/>
      <stop offset="1" stop-color="#020617"/>
    </linearGradient>
    <linearGradient id="land" x1="0" y1="0" x2="1" y2="1">
      <stop offset="0" stop-color="#24557d"/>
      <stop offset="0.45" stop-color="#1c405f"/>
      <stop offset="1" stop-color="#16324b"/>
    </linearGradient>
    <filter id="glow" x="-20%" y="-20%" width="140%" height="140%">
      <feGaussianBlur stdDeviation="7" result="blur"/>
      <feMerge><feMergeNode in="blur"/><feMergeNode in="SourceGraphic"/></feMerge>
    </filter>
  </defs>
  <rect width="1200" height="620" fill="url(#ocean)"/>
  <g opacity=".18" stroke="#8dd8ff" stroke-width="1">
    <path d="M0 100H1200M0 200H1200M0 300H1200M0 400H1200M0 500H1200"/>
    <path d="M100 0V620M200 0V620M300 0V620M400 0V620M500 0V620M600 0V620M700 0V620M800 0V620M900 0V620M1000 0V620M1100 0V620"/>
  </g>
  <g fill="url(#land)" stroke="#73c7ee" stroke-width="2" filter="url(#glow)" opacity=".98">
    <path id="north-america" d="M130 175c31-34 79-52 139-49 42 2 65 17 92 29 31 14 76 1 101 26 17 17-16 43 4 62 21 20 62 14 82 41 16 21 3 45-20 56-42 20-76-14-105 5-25 16-28 55-61 57-23 1-40-17-54-38-16-25-45-30-73-37-35-9-78-9-96-41-19-34-39-75-9-111z"/>
    <path id="south-america" d="M386 351c43 8 84 44 91 84 4 25-16 43-20 66-4 23 13 43 2 63-16 28-65 44-83 18-14-19-3-42-14-62-14-26-48-38-52-69-5-37 21-82 76-100z"/>
    <path id="europe" d="M562 178c36-28 93-30 129-6 21 14 35 42 19 61-21 25-58 3-86 10-32 8-48 44-79 31-30-13-36-68 17-96z"/>
    <path id="africa" d="M600 292c54-25 125 3 144 55 12 33-2 73-24 99-21 25-19 61-47 77-40 23-86-18-84-58 1-31 29-50 17-82-9-22-35-34-31-58 3-16 12-26 25-33z"/>
    <path id="asia" d="M710 163c69-34 166-30 231 11 40 26 105 18 129 61 17 31-12 60-43 70-43 13-78-13-112 6-26 15-24 53-56 61-45 11-57-47-99-50-40-2-64 38-101 21-26-12-24-51-4-77 24-31 29-79 55-103z"/>
    <path id="southeast-asia" d="M859 350c33-12 80 7 93 37 12 27-2 68-35 75-36 8-58-20-63-53-3-20-14-48 5-59z"/>
    <path id="australia" d="M914 458c44-15 95-5 126 22 21 19 15 46-12 59-45 21-119 12-141-21-17-25-2-49 27-60z"/>
    <path id="greenland" d="M338 65c40-29 105-26 140 1 21 17 12 45-18 56-49 18-111 10-139-17-17-17-7-31 17-40z" opacity=".65"/>
  </g>
  <g opacity=".38" stroke="#e4f7ff" stroke-width="2" fill="none">
    <path d="M96 143c136 36 251 89 345 163 77 62 178 81 275 46 130-47 224-25 365 73" stroke-dasharray="11 12"/>
    <path d="M205 470c122-104 239-162 348-173 117-11 210-64 316-154" stroke-dasharray="8 13"/>
  </g>
  <g font-family="Arial, Helvetica, sans-serif" font-size="18" fill="#d6f1ff" opacity=".92">
    <text x="210" y="245">América do Norte</text>
    <text x="373" y="463">América do Sul</text>
    <text x="597" y="229">Europa</text>
    <text x="648" y="398">África</text>
    <text x="851" y="244">Ásia</text>
    <text x="934" y="515">Oceania</text>
  </g>
  <rect x="16" y="574" width="468" height="28" rx="14" fill="#020617" opacity=".75"/>
  <text x="32" y="594" fill="#b8d8ef" font-family="Arial, Helvetica, sans-serif" font-size="13">Mapa global vetorial autoral · Estilo Leaflet/OpenStreetMap · Uso gratuito no jogo</text>
</svg>
